<?xml version="1.0" standalone="no"?>
<!DOCTYPE svg PUBLIC "-//W3C//DTD SVG 20010904//EN"
 "http://www.w3.org/TR/2001/REC-SVG-20010904/DTD/svg10.dtd">
<svg version="1.0" xmlns="http://www.w3.org/2000/svg"
 width="100.000000pt" height="100.000000pt" viewBox="0 0 100.000000 100.000000"
 preserveAspectRatio="xMidYMid meet">

<g transform="translate(0.000000,100.000000) scale(0.100000,-0.100000)"
fill="#000000" stroke="none">
<path d="M202 948 c-6 -6 -12 -23 -12 -37 0 -17 -27 -59 -80 -125 -44 -54 -80
-101 -80 -102 0 -2 86 -4 190 -4 120 0 190 4 190 10 0 6 -62 10 -165 10 -91 0
-165 2 -165 5 0 3 28 40 61 83 41 51 72 80 93 87 27 9 31 15 31 45 0 30 -4 35
-25 38 -14 2 -31 -3 -38 -10z m48 -28 c0 -13 -7 -20 -20 -20 -13 0 -20 7 -20
20 0 13 7 20 20 20 13 0 20 -7 20 -20z"/>
<path d="M724 946 c-13 -33 1 -61 34 -72 23 -7 53 -35 97 -90 l63 -79 -169 -3
c-96 -1 -169 -6 -169 -12 0 -5 83 -10 195 -12 107 -2 195 -2 195 -1 0 1 -38
49 -84 107 -61 76 -86 114 -88 138 -3 29 -7 33 -36 36 -21 2 -34 -2 -38 -12z
m56 -26 c0 -13 -7 -20 -20 -20 -13 0 -20 7 -20 20 0 13 7 20 20 20 13 0 20 -7
20 -20z"/>
<path d="M310 940 c0 -6 62 -10 165 -10 91 0 165 -3 165 -6 0 -3 -30 -43 -66
-89 -49 -62 -73 -85 -93 -87 -21 -2 -27 -9 -29 -35 -2 -24 2 -34 17 -43 32
-16 61 3 61 41 0 24 18 54 73 123 40 50 77 97 81 104 6 9 -34 12 -183 12 -121
0 -191 -4 -191 -10z m200 -230 c0 -13 -7 -20 -20 -20 -13 0 -20 7 -20 20 0 13
7 20 20 20 13 0 20 -7 20 -20z"/>
<path d="M500 636 c-6 -8 -10 -25 -8 -38 2 -17 10 -24 34 -26 19 -2 36 3 44
12 10 13 39 16 156 16 79 0 144 -2 144 -5 0 -3 -5 -14 -12 -25 -7 -10 -9 -22
-5 -26 9 -10 35 14 53 48 l15 28 -170 0 c-138 0 -171 3 -181 15 -16 19 -54 19
-70 1z m55 -26 c0 -8 -10 -16 -22 -18 -22 -3 -32 16 -16 32 12 11 38 2 38 -14z"/>
<path d="M92 584 c20 -35 43 -52 54 -41 3 3 -2 17 -11 31 l-17 26 166 0 c104
0 166 4 166 10 0 6 -70 10 -190 10 l-189 0 21 -36z"/>
<path d="M262 503 c-7 -3 -19 -18 -27 -34 -15 -27 -14 -29 4 -29 11 0 24 7 29
16 5 9 22 17 37 17 16 0 34 -8 40 -17 14 -18 45 -22 45 -6 0 6 -11 22 -25 35
-23 24 -69 32 -103 18z"/>
<path d="M467 503 c-13 -12 -7 -33 8 -33 8 0 15 -4 15 -9 0 -5 -7 -11 -15 -15
-22 -8 -18 -36 4 -36 24 0 51 26 51 49 0 31 -45 62 -63 44z"/>
<path d="M720 490 c0 -17 7 -20 53 -20 49 0 77 12 77 32 0 4 -29 8 -65 8 -58
0 -65 -2 -65 -20z"/>
<path d="M110 485 c0 -11 12 -15 50 -15 38 0 50 4 50 15 0 11 -12 15 -50 15
-38 0 -50 -4 -50 -15z"/>
<path d="M410 430 c0 -56 3 -70 15 -70 12 0 15 14 15 70 0 56 -3 70 -15 70
-12 0 -15 -14 -15 -70z"/>
<path d="M610 479 c0 -11 5 -30 11 -41 8 -14 8 -23 0 -31 -17 -17 -13 -27 13
-27 13 0 26 -7 30 -15 5 -14 36 -22 36 -10 0 3 -16 37 -35 75 -35 70 -55 88
-55 49z"/>
<path d="M150 410 c0 -38 4 -50 15 -50 11 0 15 12 15 50 0 38 -4 50 -15 50
-11 0 -15 -12 -15 -50z"/>
<path d="M766 438 c-21 -30 -20 -38 4 -38 12 0 26 12 35 30 15 28 14 30 -4 30
-11 0 -27 -10 -35 -22z"/>
<path d="M583 438 c-19 -23 -45 -80 -39 -85 11 -12 37 8 53 42 12 24 14 38 6
46 -7 7 -13 6 -20 -3z"/>
<path d="M230 408 c1 -45 82 -75 121 -45 9 7 21 22 28 35 10 19 9 22 -8 22
-10 0 -21 -7 -25 -15 -3 -9 -18 -15 -34 -15 -16 0 -35 7 -42 15 -15 18 -40 20
-40 3z"/>
<path d="M727 373 c-18 -17 -1 -23 63 -23 56 0 70 3 70 15 0 12 -14 15 -63 15
-35 0 -67 -3 -70 -7z"/>
<path d="M118 303 c6 -2 18 -2 25 0 6 3 1 5 -13 5 -14 0 -19 -2 -12 -5z"/>
<path d="M250 285 c0 -22 2 -24 14 -13 9 8 10 15 3 19 -5 4 -2 9 9 12 16 4 16
5 -3 6 -18 1 -23 -4 -23 -24z"/>
<path d="M327 303 c-11 -10 -8 -41 4 -49 6 -3 16 -1 22 6 9 9 9 11 -2 8 -8 -2
-17 5 -19 15 -3 16 0 18 18 12 15 -5 20 -4 16 4 -8 12 -29 15 -39 4z"/>
<path d="M396 302 c7 -4 14 -16 16 -27 3 -17 5 -15 10 8 4 23 2 27 -16 27 -13
0 -16 -3 -10 -8z"/>
<path d="M460 286 c0 -19 5 -23 27 -23 l26 0 -24 19 c-24 20 -24 20 -1 15 12
-3 20 -1 16 4 -3 5 -14 9 -25 9 -13 0 -19 -7 -19 -24z"/>
<path d="M544 295 c-8 -21 3 -45 20 -45 16 0 31 34 21 50 -9 15 -35 12 -41 -5z
m31 -15 c0 -7 -6 -15 -12 -17 -8 -3 -13 4 -13 17 0 13 5 20 13 18 6 -3 12 -11
12 -18z"/>
<path d="M620 284 c0 -22 3 -26 10 -14 6 10 10 11 10 3 0 -7 5 -13 10 -13 6 0
10 12 9 28 0 15 -3 21 -6 14 -4 -10 -8 -10 -19 -1 -11 9 -14 6 -14 -17z"/>
<path d="M692 285 c0 -16 2 -22 5 -12 2 9 2 23 0 30 -3 6 -5 -1 -5 -18z"/>
<path d="M740 286 c0 -29 17 -43 33 -27 8 8 6 11 -6 11 -9 0 -17 7 -17 16 0
10 6 14 15 10 8 -3 15 -1 15 4 0 6 -9 10 -20 10 -15 0 -20 -7 -20 -24z"/>
<path d="M815 300 c-3 -6 1 -13 9 -16 22 -8 20 -25 -1 -18 -15 5 -15 4 -3 -4
19 -14 28 -7 28 23 0 25 -21 34 -33 15z"/>
<path d="M128 283 c7 -3 16 -2 19 1 4 3 -2 6 -13 5 -11 0 -14 -3 -6 -6z"/>
<path d="M120 260 c0 -6 7 -10 15 -10 8 0 15 2 15 4 0 2 -7 6 -15 10 -8 3 -15
1 -15 -4z"/>
<path d="M198 253 c7 -3 16 -2 19 1 4 3 -2 6 -13 5 -11 0 -14 -3 -6 -6z"/>
<path d="M386 165 c22 -33 34 -61 30 -70 -11 -30 12 -56 47 -53 29 3 32 6 32
38 0 29 -4 36 -23 38 -16 2 -34 20 -54 53 -19 30 -38 49 -50 49 -16 0 -13 -8
18 -55z m94 -85 c0 -13 -7 -20 -20 -20 -13 0 -20 7 -20 20 0 13 7 20 20 20 13
0 20 -7 20 -20z"/>
<path d="M582 154 c-29 -44 -40 -70 -34 -76 7 -7 28 16 61 66 41 60 48 76 34
76 -11 0 -35 -26 -61 -66z"/>
</g>
</svg>
